<?xml version="1.0" encoding="UTF-8"?>
<svg xmlns="http://www.w3.org/2000/svg" xmlns:xlink="http://www.w3.org/1999/xlink" width="356pt" height="178pt" viewBox="0 0 356 178" version="1.1">
<g id="surface1">
<path style=" stroke:none;fill-rule:evenodd;fill:rgb(0%,0%,0%);fill-opacity:1;" d="M 179.09375 89.757813 L 186.03125 101.03125 L 196.941406 114.839844 C 197.03125 114.773438 197.117188 114.707031 197.203125 114.636719 C 204.21875 109.0625 210.015625 102.296875 213.78125 94.121094 C 217.390625 86.28125 218.785156 77.863281 218.519531 69.269531 C 217.722656 43.550781 198.015625 21.984375 172.667969 18.207031 C 158.441406 16.089844 145.492188 19.199219 133.605469 27.238281 C 132.484375 27.996094 131.472656 28.703125 130.039063 28.726563 C 124.660156 28.8125 119.28125 28.773438 113.902344 28.773438 L 112.332031 28.773438 L 111.597656 27.386719 C 111.445313 27.101563 111.296875 26.816406 111.148438 26.535156 L 110.175781 24.699219 L 111.746094 23.34375 C 115.230469 20.328125 118.5 17.089844 122.222656 14.351563 C 163.964844 -16.34375 223.46875 6.34375 234.222656 57.019531 C 237.476563 72.363281 235.46875 88.292969 228.679688 102.417969 C 221.425781 117.503906 209.160156 129.609375 193.90625 136.53125 C 191.300781 137.714844 189.121094 137.515625 187.253906 135.132813 C 178.121094 123.496094 168.96875 105.367188 159.808594 93.753906 L 159.808594 114.144531 L 141.910156 114.144531 L 141.910156 55.058594 C 136.300781 55.0625 130.691406 55.066406 125.082031 55.066406 C 121.28125 55.070313 117.480469 55.207031 113.683594 55.011719 C 113.550781 55.007813 113.246094 54.996094 113.074219 55.03125 C 112.949219 55.222656 112.808594 55.65625 112.757813 55.828125 C 105.664063 78.789063 115.050781 104.109375 135.273438 117.050781 C 145.304688 123.46875 156.277344 126.25 168.15625 125.464844 C 171.019531 125.277344 173.113281 126.246094 174.726563 128.636719 C 176.722656 131.59375 178.984375 134.398438 181.121094 137.253906 L 183.777344 140.800781 L 179.386719 141.398438 C 176.183594 141.835938 172.976563 142.441406 169.746094 142.679688 C 153.285156 143.90625 136.976563 139.398438 123.476563 129.90625 C 110.148438 120.535156 100.484375 106.949219 96.027344 91.277344 C 90.832031 73.011719 92.828125 55.210938 101.472656 38.347656 C 102.699219 35.949219 104.519531 34.894531 107.199219 34.90625 C 126.714844 34.972656 146.230469 34.878906 165.746094 35.023438 C 169.6875 35.054688 173.699219 35.578125 177.507813 36.613281 C 185.445313 38.773438 190.507813 44.683594 191.367188 52.859375 C 192.105469 59.886719 192.164063 67.0625 191.382813 74.089844 C 190.507813 81.933594 185.945313 87.207031 179.09375 89.757813 Z M 173.550781 55.324219 C 171.714844 53.488281 169.578125 52.273438 166.929688 51.910156 C 163.242188 51.40625 159.496094 51.085938 155.773438 51.085938 C 155.71875 51.085938 155.664063 51.085938 155.605469 51.085938 L 155.605469 75.183594 C 155.871094 75.191406 156.132813 75.195313 156.394531 75.195313 C 157.648438 75.195313 158.929688 75.128906 160.183594 75.074219 C 161.726563 75.011719 163.28125 74.945313 164.828125 74.945313 C 166.855469 74.945313 169.238281 74.726563 171.097656 73.851563 C 172.328125 73.269531 173.46875 72.519531 174.390625 71.519531 C 174.699219 67.816406 174.773438 64.074219 174.457031 60.378906 C 174.3125 58.710938 174.058594 56.949219 173.550781 55.324219 "/>
<path style=" stroke:none;fill-rule:nonzero;fill:rgb(0%,0%,0%);fill-opacity:1;" d="M 310.339844 121.515625 L 287.921875 121.515625 L 287.921875 46.785156 L 265.503906 46.785156 L 265.503906 121.515625 L 243.085938 121.515625 L 243.085938 24.367188 L 325.289063 24.367188 C 333.558594 24.464844 340.605469 27.429688 346.4375 33.257813 C 352.265625 39.089844 355.179688 46.136719 355.179688 54.40625 L 355.179688 121.515625 L 332.761719 121.515625 L 332.761719 54.132813 C 332.761719 52.117188 332.039063 50.398438 330.59375 48.953125 C 329.148438 47.507813 327.378906 46.785156 325.289063 46.785156 L 310.339844 46.785156 L 310.339844 121.515625 "/>
<path style=" stroke:none;fill-rule:nonzero;fill:rgb(0%,0%,0%);fill-opacity:1;" d="M 89.773438 121.515625 L 29.988281 121.515625 C 21.816406 121.515625 14.792969 118.601563 8.914063 112.746094 C 3.035156 106.917969 0.09375 99.917969 0.09375 91.722656 C 0.09375 91.722656 0.09375 89.753906 0.09375 85.820313 C 0.09375 81.882813 0.09375 77.550781 0.09375 72.867188 C 0.09375 68.582031 0.09375 64.570313 0.09375 60.886719 C 0.09375 57.199219 0.09375 55.007813 0.09375 54.308594 C 0.09375 46.011719 3.035156 38.964844 8.914063 33.132813 C 14.792969 27.28125 21.816406 24.367188 29.988281 24.367188 L 89.773438 24.21875 L 89.773438 46.785156 L 29.988281 46.785156 C 29.6875 46.886719 29.390625 46.960938 29.089844 47.011719 C 28.792969 47.058594 28.492188 47.132813 28.195313 47.234375 C 26.800781 47.632813 25.503906 48.503906 24.308594 49.847656 C 23.113281 51.195313 22.515625 52.714844 22.515625 54.40625 L 22.515625 91.625 C 22.515625 93.714844 23.261719 95.511719 24.757813 97.003906 C 26.25 98.5 27.996094 99.246094 29.988281 99.246094 L 89.773438 99.246094 L 89.773438 121.515625 "/>
<path style=" stroke:none;fill-rule:nonzero;fill:rgb(0%,0%,0%);fill-opacity:1;" d="M 48.546875 166.296875 C 47.058594 167.777344 45.925781 168.777344 45.140625 169.296875 C 44.363281 169.820313 43.675781 170.078125 43.074219 170.078125 C 42.339844 170.078125 41.757813 169.71875 41.332031 169.003906 C 40.902344 168.289063 40.679688 167.242188 40.667969 165.863281 C 39.820313 167.242188 38.902344 168.289063 37.90625 169.003906 C 36.910156 169.71875 36.003906 170.078125 35.199219 170.078125 C 34.320313 170.078125 33.546875 169.660156 32.875 168.824219 C 32.203125 167.988281 31.867188 167.007813 31.867188 165.890625 C 31.867188 163.570313 32.710938 161.425781 34.390625 159.449219 C 36.066406 157.472656 37.871094 156.484375 39.804688 156.484375 C 40.339844 156.484375 40.765625 156.5625 41.066406 156.722656 C 41.371094 156.878906 41.707031 157.15625 42.066406 157.535156 L 44.285156 148.191406 C 46.089844 147.789063 47.300781 147.589844 47.933594 147.589844 C 48.140625 147.589844 48.238281 147.671875 48.238281 147.835938 C 48.238281 147.949219 47.984375 149.023438 47.472656 151.054688 C 45.417969 159.1875 44.390625 164.101563 44.390625 165.800781 C 44.390625 166.203125 44.476563 166.519531 44.640625 166.765625 C 44.804688 167.003906 45.019531 167.125 45.285156 167.125 C 45.945313 167.125 47.03125 166.257813 48.546875 164.519531 Z M 37.34375 167.125 C 38.355469 167.125 39.296875 166.261719 40.175781 164.53125 C 41.054688 162.804688 41.492188 161.183594 41.492188 159.675781 C 41.492188 159.0625 41.355469 158.570313 41.082031 158.203125 C 40.804688 157.839844 40.453125 157.65625 40.007813 157.65625 C 39.046875 157.65625 38.117188 158.5625 37.214844 160.367188 C 36.320313 162.175781 35.871094 163.808594 35.871094 165.265625 C 35.871094 165.839844 36.003906 166.292969 36.269531 166.628906 C 36.527344 166.960938 36.886719 167.125 37.34375 167.125 Z M 55.851563 150.480469 C 55.851563 152.957031 54.9375 154.195313 53.109375 154.195313 C 52.222656 154.195313 51.464844 153.925781 50.835938 153.390625 C 51.433594 152.480469 51.898438 151.457031 52.230469 150.320313 C 53.046875 150.828125 53.703125 151.082031 54.195313 151.082031 C 54.753906 151.082031 55.308594 150.882813 55.851563 150.480469 Z M 56.171875 166.296875 C 53.75 168.820313 51.945313 170.078125 50.742188 170.078125 C 50.082031 170.078125 49.527344 169.738281 49.070313 169.0625 C 48.617188 168.386719 48.386719 167.539063 48.386719 166.515625 C 48.386719 164.3125 49.128906 161.265625 50.613281 157.367188 L 54.554688 156.546875 L 54.742188 156.546875 L 53.191406 161.394531 C 52.550781 163.402344 52.230469 164.832031 52.230469 165.691406 C 52.230469 166.035156 52.304688 166.308594 52.453125 166.519531 C 52.609375 166.734375 52.792969 166.839844 53.019531 166.839844 C 53.429688 166.839844 53.832031 166.695313 54.238281 166.40625 C 54.644531 166.113281 55.292969 165.484375 56.171875 164.519531 Z M 60.945313 157.179688 C 61.660156 156.996094 62.382813 156.84375 63.105469 156.726563 C 63.828125 156.605469 64.261719 156.546875 64.410156 156.546875 C 64.511719 156.546875 64.5625 156.589844 64.5625 156.667969 C 64.5625 156.828125 64.519531 156.984375 64.433594 157.148438 C 64.265625 157.625 64.179688 158.082031 64.179688 158.511719 C 64.191406 159.050781 64.503906 159.78125 65.125 160.714844 C 65.742188 161.644531 66.054688 162.507813 66.054688 163.308594 C 66.054688 164.886719 65.296875 166.410156 63.78125 167.875 C 62.265625 169.34375 60.691406 170.078125 59.066406 170.078125 C 58.363281 170.078125 57.722656 169.894531 57.140625 169.523438 C 56.5625 169.152344 56.273438 168.753906 56.273438 168.332031 C 56.273438 168.082031 56.558594 167.613281 57.132813 166.921875 C 57.707031 166.230469 58.117188 165.886719 58.367188 165.886719 C 58.695313 165.886719 58.992188 166.308594 59.253906 167.15625 C 59.511719 168.003906 59.957031 168.425781 60.585938 168.425781 C 61.222656 168.425781 61.816406 168.136719 62.367188 167.546875 C 62.921875 166.960938 63.195313 166.332031 63.195313 165.652344 C 63.207031 165.003906 62.859375 164.132813 62.152344 163.054688 C 61.445313 161.96875 60.976563 161.0625 60.75 160.328125 C 59.546875 162.257813 58.027344 164.238281 56.1875 166.265625 L 55.828125 166.265625 L 55.828125 164.871094 C 58.363281 162.175781 60.066406 159.613281 60.945313 157.179688 Z M 80.664063 166.296875 C 79.339844 167.601563 78.128906 168.554688 77.027344 169.164063 C 75.925781 169.773438 74.777344 170.078125 73.578125 170.078125 C 72.234375 170.078125 71.121094 169.640625 70.25 168.761719 C 69.375 167.886719 68.941406 166.769531 68.941406 165.417969 C 68.941406 163.210938 69.746094 161.167969 71.351563 159.292969 C 72.953125 157.417969 74.695313 156.484375 76.566406 156.484375 C 77.480469 156.484375 78.234375 156.738281 78.808594 157.25 C 79.386719 157.765625 79.679688 158.425781 79.679688 159.246094 C 79.679688 159.53125 79.625 159.75 79.515625 159.898438 C 79.410156 160.039063 79.203125 160.183594 78.90625 160.332031 L 77.105469 161.183594 C 76.886719 161.285156 76.730469 161.339844 76.625 161.339844 C 76.480469 161.339844 76.40625 161.238281 76.40625 161.027344 C 76.40625 160.945313 76.4375 160.675781 76.503906 160.214844 C 76.566406 159.753906 76.597656 159.472656 76.597656 159.367188 C 76.597656 158.914063 76.503906 158.546875 76.3125 158.265625 C 76.121094 157.984375 75.859375 157.847656 75.542969 157.847656 C 74.785156 157.847656 74.097656 158.410156 73.46875 159.53125 C 72.84375 160.65625 72.53125 161.9375 72.53125 163.371094 C 72.53125 164.609375 72.828125 165.59375 73.414063 166.335938 C 74.003906 167.070313 74.792969 167.441406 75.777344 167.441406 C 76.613281 167.441406 77.402344 167.203125 78.144531 166.722656 C 78.878906 166.246094 79.722656 165.511719 80.664063 164.519531 Z M 94.582031 166.304688 C 94.058594 166.78125 93.542969 167.113281 93.050781 167.308594 C 92.554688 167.507813 92.164063 167.601563 91.878906 167.601563 C 91.136719 167.601563 90.394531 167.308594 89.664063 166.734375 C 88.175781 168.960938 86.464844 170.078125 84.542969 170.078125 C 83.34375 170.078125 82.375 169.628906 81.628906 168.722656 C 80.878906 167.820313 80.511719 166.621094 80.511719 165.128906 C 80.511719 162.757813 81.347656 160.730469 83.023438 159.03125 C 84.699219 157.328125 86.699219 156.484375 89.027344 156.484375 C 89.90625 156.484375 90.546875 156.578125 90.957031 156.773438 C 91.367188 156.964844 91.617188 157.191406 91.714844 157.453125 C 91.804688 157.714844 91.851563 158.042969 91.851563 158.441406 C 91.851563 160.394531 91.320313 162.792969 90.269531 165.632813 C 90.792969 166.117188 91.347656 166.363281 91.925781 166.363281 C 92.613281 166.363281 93.503906 165.746094 94.582031 164.519531 Z M 89.480469 157.5625 C 89.320313 157.5 89.097656 157.46875 88.8125 157.46875 C 87.46875 157.46875 86.414063 158.175781 85.652344 159.601563 C 84.894531 161.019531 84.511719 162.683594 84.511719 164.582031 C 84.511719 165.636719 84.675781 166.457031 85.011719 167.039063 C 85.339844 167.628906 85.796875 167.917969 86.390625 167.917969 C 87.121094 167.917969 87.921875 167.242188 88.78125 165.878906 C 87.800781 164.648438 87.308594 163.316406 87.308594 161.894531 C 87.308594 160.21875 88.03125 158.773438 89.480469 157.5625 Z M 108.496094 166.296875 C 108.019531 166.710938 107.542969 167.003906 107.058594 167.175781 C 106.570313 167.351563 106.195313 167.441406 105.921875 167.441406 C 105.171875 167.441406 104.425781 167.152344 103.695313 166.574219 C 101.851563 168.910156 99.902344 170.078125 97.847656 170.078125 C 96.773438 170.078125 95.933594 169.707031 95.328125 168.96875 C 94.726563 168.21875 94.421875 167.1875 94.421875 165.859375 C 94.421875 164.394531 94.785156 162.597656 95.507813 160.46875 L 96.59375 157.277344 L 100.828125 156.476563 L 98.933594 162.105469 C 98.738281 162.714844 98.554688 163.445313 98.390625 164.285156 C 98.226563 165.128906 98.140625 165.730469 98.140625 166.097656 C 98.140625 166.660156 98.289063 167.128906 98.582031 167.507813 C 98.871094 167.886719 99.230469 168.078125 99.648438 168.078125 C 100.632813 168.078125 101.699219 167.230469 102.84375 165.542969 C 102.3125 164.472656 102.046875 163.402344 102.046875 162.328125 C 102.046875 160.835938 102.441406 159.484375 103.21875 158.28125 C 104.003906 157.082031 104.859375 156.484375 105.789063 156.484375 C 106.496094 156.484375 106.84375 157.03125 106.84375 158.128906 C 106.84375 160.246094 105.996094 162.699219 104.296875 165.476563 C 104.828125 165.9375 105.378906 166.171875 105.953125 166.171875 C 106.660156 166.171875 107.507813 165.621094 108.496094 164.519531 Z M 120.09375 166.296875 C 118.777344 167.589844 117.605469 168.542969 116.554688 169.15625 C 115.511719 169.773438 114.359375 170.078125 113.097656 170.078125 C 111.695313 170.078125 110.5625 169.628906 109.699219 168.730469 C 108.835938 167.824219 108.402344 166.636719 108.402344 165.171875 C 108.402344 162.972656 109.164063 160.988281 110.683594 159.210938 C 112.203125 157.4375 113.886719 156.546875 115.738281 156.546875 C 116.699219 156.546875 117.472656 156.796875 118.046875 157.292969 C 118.625 157.785156 118.914063 158.4375 118.914063 159.246094 C 118.914063 161.386719 116.648438 163.121094 112.113281 164.457031 C 112.527344 166.488281 113.605469 167.507813 115.347656 167.507813 C 116.023438 167.507813 116.675781 167.320313 117.296875 166.957031 C 117.910156 166.589844 118.847656 165.78125 120.09375 164.519531 Z M 111.992188 163.40625 C 114.617188 162.667969 115.929688 161.296875 115.929688 159.300781 C 115.929688 158.308594 115.570313 157.816406 114.855469 157.816406 C 114.179688 157.816406 113.53125 158.335938 112.914063 159.367188 C 112.296875 160.40625 111.992188 161.75 111.992188 163.40625 Z M 131.691406 166.296875 C 129.09375 168.820313 127.089844 170.078125 125.683594 170.078125 C 125.054688 170.078125 124.519531 169.8125 124.085938 169.28125 C 123.648438 168.75 123.433594 168.089844 123.433594 167.304688 C 123.433594 165.84375 124.210938 163.890625 125.773438 161.445313 C 125.011719 161.835938 124.175781 162.109375 123.269531 162.265625 C 122.597656 163.515625 121.542969 164.859375 120.101563 166.296875 L 119.746094 166.296875 L 119.746094 164.902344 C 120.558594 164.054688 121.28125 163.144531 121.933594 162.167969 C 121.050781 161.777344 120.605469 161.199219 120.605469 160.425781 C 120.605469 159.636719 120.875 158.789063 121.414063 157.898438 C 121.960938 156.996094 122.707031 156.546875 123.65625 156.546875 C 124.460938 156.546875 124.863281 156.960938 124.863281 157.78125 C 124.863281 158.425781 124.628906 159.347656 124.164063 160.546875 C 125.878906 160.363281 127.382813 159.050781 128.664063 156.609375 L 130.070313 156.546875 L 128.636719 160.515625 C 128.039063 162.191406 127.652344 163.328125 127.476563 163.933594 C 127.304688 164.539063 127.214844 165.074219 127.214844 165.542969 C 127.214844 165.976563 127.3125 166.320313 127.515625 166.578125 C 127.714844 166.839844 127.984375 166.964844 128.328125 166.964844 C 128.699219 166.964844 129.054688 166.839844 129.398438 166.589844 C 129.738281 166.339844 130.507813 165.652344 131.691406 164.519531 Z M 144.410156 157.179688 C 145.125 156.996094 145.84375 156.84375 146.570313 156.726563 C 147.289063 156.605469 147.722656 156.546875 147.871094 156.546875 C 147.972656 156.546875 148.027344 156.589844 148.027344 156.667969 C 148.027344 156.828125 147.984375 156.984375 147.898438 157.148438 C 147.730469 157.625 147.644531 158.082031 147.644531 158.511719 C 147.65625 159.050781 147.96875 159.78125 148.585938 160.714844 C 149.207031 161.644531 149.519531 162.507813 149.519531 163.308594 C 149.519531 164.886719 148.761719 166.410156 147.242188 167.875 C 145.726563 169.34375 144.15625 170.078125 142.53125 170.078125 C 141.824219 170.078125 141.183594 169.894531 140.601563 169.523438 C 140.023438 169.152344 139.734375 168.753906 139.734375 168.332031 C 139.734375 168.082031 140.019531 167.613281 140.597656 166.921875 C 141.167969 166.230469 141.582031 165.886719 141.832031 165.886719 C 142.160156 165.886719 142.453125 166.308594 142.714844 167.15625 C 142.976563 168.003906 143.421875 168.425781 144.050781 168.425781 C 144.683594 168.425781 145.277344 168.136719 145.828125 167.546875 C 146.382813 166.960938 146.660156 166.332031 146.660156 165.652344 C 146.671875 165.003906 146.320313 164.132813 145.617188 163.054688 C 144.90625 161.96875 144.441406 161.0625 144.214844 160.328125 C 143.011719 162.257813 141.492188 164.238281 139.648438 166.265625 L 139.289063 166.265625 L 139.289063 164.871094 C 141.824219 162.175781 143.53125 159.613281 144.410156 157.179688 Z M 159.976563 159.1875 C 160.71875 158.289063 161.414063 157.621094 162.070313 157.191406 C 162.730469 156.761719 163.460938 156.546875 164.265625 156.546875 C 165.300781 156.546875 166.148438 156.949219 166.800781 157.746094 C 167.449219 158.554688 167.777344 159.605469 167.777344 160.914063 C 167.777344 163.203125 166.992188 165.304688 165.417969 167.214844 C 163.847656 169.125 162.128906 170.078125 160.28125 170.078125 C 159.769531 170.078125 159.359375 170.019531 159.058594 169.910156 C 158.761719 169.792969 158.371094 169.535156 157.882813 169.113281 C 157.136719 172.386719 156.65625 175.003906 156.4375 176.972656 L 152.5 177.671875 C 153.234375 172.835938 154.167969 167.941406 155.304688 162.980469 C 153.9375 164.773438 153.019531 165.878906 152.542969 166.296875 L 152.183594 166.296875 L 152.183594 164.902344 C 154.152344 162.78125 155.769531 160.210938 157.042969 157.179688 L 160.535156 156.546875 Z M 158.175781 167.507813 C 158.710938 168.375 159.304688 168.808594 159.949219 168.808594 C 160.992188 168.808594 161.90625 168.015625 162.707031 166.429688 C 163.507813 164.84375 163.902344 163.296875 163.902344 161.789063 C 163.902344 160.988281 163.738281 160.347656 163.417969 159.855469 C 163.09375 159.363281 162.675781 159.121094 162.160156 159.121094 C 161.757813 159.121094 161.335938 159.300781 160.898438 159.664063 C 160.453125 160.023438 160.117188 160.449219 159.890625 160.925781 C 159.664063 161.40625 159.410156 162.25 159.117188 163.449219 Z M 180.429688 166.296875 C 179.113281 167.589844 177.941406 168.542969 176.890625 169.15625 C 175.847656 169.773438 174.695313 170.078125 173.433594 170.078125 C 172.03125 170.078125 170.898438 169.628906 170.035156 168.730469 C 169.171875 167.824219 168.738281 166.636719 168.738281 165.171875 C 168.738281 162.972656 169.5 160.988281 171.019531 159.210938 C 172.539063 157.4375 174.222656 156.546875 176.074219 156.546875 C 177.035156 156.546875 177.808594 156.796875 178.382813 157.292969 C 178.960938 157.785156 179.253906 158.4375 179.253906 159.246094 C 179.253906 161.386719 176.988281 163.121094 172.449219 164.457031 C 172.863281 166.488281 173.941406 167.507813 175.683594 167.507813 C 176.363281 167.507813 177.011719 167.320313 177.632813 166.957031 C 178.246094 166.589844 179.183594 165.78125 180.429688 164.519531 Z M 172.328125 163.40625 C 174.953125 162.667969 176.265625 161.296875 176.265625 159.300781 C 176.265625 158.308594 175.90625 157.816406 175.191406 157.816406 C 174.515625 157.816406 173.867188 158.335938 173.246094 159.367188 C 172.632813 160.40625 172.328125 161.75 172.328125 163.40625 Z M 192.027344 166.296875 C 190.703125 167.601563 189.492188 168.554688 188.390625 169.164063 C 187.289063 169.773438 186.140625 170.078125 184.945313 170.078125 C 183.597656 170.078125 182.488281 169.640625 181.613281 168.761719 C 180.738281 167.886719 180.304688 166.769531 180.304688 165.417969 C 180.304688 163.210938 181.109375 161.167969 182.714844 159.292969 C 184.320313 157.417969 186.0625 156.484375 187.929688 156.484375 C 188.847656 156.484375 189.597656 156.738281 190.175781 157.25 C 190.753906 157.765625 191.042969 158.425781 191.042969 159.246094 C 191.042969 159.53125 190.992188 159.75 190.878906 159.898438 C 190.773438 160.039063 190.566406 160.183594 190.269531 160.332031 L 188.46875 161.183594 C 188.253906 161.285156 188.09375 161.339844 187.988281 161.339844 C 187.847656 161.339844 187.769531 161.238281 187.769531 161.027344 C 187.769531 160.945313 187.804688 160.675781 187.867188 160.214844 C 187.929688 159.753906 187.960938 159.472656 187.960938 159.367188 C 187.960938 158.914063 187.867188 158.546875 187.675781 158.265625 C 187.484375 157.984375 187.226563 157.847656 186.910156 157.847656 C 186.152344 157.847656 185.464844 158.410156 184.832031 159.53125 C 184.207031 160.65625 183.894531 161.9375 183.894531 163.371094 C 183.894531 164.609375 184.191406 165.59375 184.78125 166.335938 C 185.367188 167.070313 186.15625 167.441406 187.140625 167.441406 C 187.976563 167.441406 188.765625 167.203125 189.507813 166.722656 C 190.242188 166.246094 191.085938 165.511719 192.027344 164.519531 Z M 199.339844 150.480469 C 199.339844 152.957031 198.425781 154.195313 196.597656 154.195313 C 195.707031 154.195313 194.949219 153.925781 194.320313 153.390625 C 194.917969 152.480469 195.386719 151.457031 195.71875 150.320313 C 196.535156 150.828125 197.191406 151.082031 197.683594 151.082031 C 198.238281 151.082031 198.796875 150.882813 199.339844 150.480469 Z M 199.65625 166.296875 C 197.238281 168.820313 195.433594 170.078125 194.230469 170.078125 C 193.570313 170.078125 193.011719 169.738281 192.558594 169.0625 C 192.101563 168.386719 191.875 167.539063 191.875 166.515625 C 191.875 164.3125 192.617188 161.265625 194.097656 157.367188 L 198.042969 156.546875 L 198.226563 156.546875 L 196.675781 161.394531 C 196.035156 163.402344 195.71875 164.832031 195.71875 165.691406 C 195.71875 166.035156 195.792969 166.308594 195.941406 166.519531 C 196.09375 166.734375 196.28125 166.839844 196.507813 166.839844 C 196.914063 166.839844 197.316406 166.695313 197.726563 166.40625 C 198.132813 166.113281 198.777344 165.484375 199.65625 164.519531 Z M 216.214844 166.296875 C 214.5625 167.867188 213.375 168.894531 212.660156 169.363281 C 211.945313 169.839844 211.269531 170.078125 210.617188 170.078125 C 208.980469 170.078125 208.207031 168.632813 208.304688 165.742188 C 207.269531 167.226563 206.316406 168.316406 205.445313 169.019531 C 204.570313 169.722656 203.671875 170.078125 202.738281 170.078125 C 201.835938 170.078125 201.0625 169.648438 200.425781 168.796875 C 199.789063 167.941406 199.472656 166.890625 199.472656 165.652344 C 199.472656 164.097656 199.894531 162.613281 200.746094 161.207031 C 201.601563 159.796875 202.695313 158.660156 204.027344 157.789063 C 205.359375 156.917969 206.539063 156.484375 207.5625 156.484375 C 208.855469 156.484375 209.757813 157.074219 210.273438 158.265625 L 213.460938 156.484375 L 214.335938 156.484375 L 212.957031 161.050781 C 212.242188 163.347656 211.886719 164.921875 211.886719 165.773438 C 211.886719 166.675781 212.207031 167.125 212.835938 167.125 C 213.238281 167.125 213.683594 166.90625 214.164063 166.480469 C 214.652344 166.050781 215.335938 165.398438 216.214844 164.519531 Z M 204.867188 167.125 C 205.898438 167.125 206.875 166.242188 207.785156 164.476563 C 208.699219 162.714844 209.15625 161.089844 209.15625 159.601563 C 209.15625 159.019531 209.027344 158.570313 208.769531 158.242188 C 208.511719 157.917969 208.164063 157.753906 207.730469 157.753906 C 206.699219 157.753906 205.71875 158.632813 204.796875 160.390625 C 203.871094 162.148438 203.410156 163.769531 203.410156 165.246094 C 203.410156 165.804688 203.550781 166.257813 203.824219 166.605469 C 204.09375 166.949219 204.445313 167.125 204.867188 167.125 Z M 226.476563 166.296875 C 225.070313 167.589844 223.839844 168.542969 222.777344 169.15625 C 221.714844 169.773438 220.710938 170.078125 219.746094 170.078125 C 218.636719 170.078125 217.75 169.648438 217.070313 168.792969 C 216.394531 167.933594 216.054688 166.78125 216.054688 165.335938 C 216.054688 163.160156 216.527344 160.554688 217.464844 157.515625 C 218.398438 154.476563 219.542969 151.671875 220.882813 149.105469 L 224.824219 147.652344 C 224.945313 147.609375 225.039063 147.589844 225.101563 147.589844 C 225.398438 147.589844 225.648438 147.804688 225.839844 148.246094 C 226.03125 148.683594 226.125 149.277344 226.125 150.023438 C 226.125 152.128906 225.636719 154.175781 224.667969 156.148438 C 223.699219 158.125 222.179688 160.234375 220.117188 162.476563 C 220.035156 163.554688 219.992188 164.296875 219.992188 164.699219 C 219.992188 165.601563 220.15625 166.316406 220.492188 166.839844 C 220.820313 167.367188 221.257813 167.632813 221.808594 167.632813 C 222.367188 167.632813 222.960938 167.433594 223.589844 167.03125 C 224.21875 166.628906 225.183594 165.789063 226.476563 164.519531 Z M 220.535156 160.230469 C 221.847656 158.769531 222.910156 157.132813 223.726563 155.316406 C 224.542969 153.507813 224.949219 151.945313 224.949219 150.644531 C 224.949219 150.257813 224.890625 149.949219 224.78125 149.714844 C 224.664063 149.484375 224.519531 149.367188 224.347656 149.367188 C 223.964844 149.367188 223.410156 150.320313 222.683594 152.226563 C 221.953125 154.132813 221.238281 156.800781 220.535156 160.230469 Z M 250.972656 166.296875 C 249.484375 167.777344 248.351563 168.777344 247.566406 169.296875 C 246.789063 169.820313 246.101563 170.078125 245.496094 170.078125 C 244.765625 170.078125 244.183594 169.71875 243.757813 169.003906 C 243.328125 168.289063 243.105469 167.242188 243.09375 165.863281 C 242.246094 167.242188 241.324219 168.289063 240.328125 169.003906 C 239.335938 169.71875 238.429688 170.078125 237.625 170.078125 C 236.746094 170.078125 235.972656 169.660156 235.300781 168.824219 C 234.628906 167.988281 234.296875 167.007813 234.296875 165.890625 C 234.296875 163.570313 235.136719 161.425781 236.816406 159.449219 C 238.492188 157.472656 240.296875 156.484375 242.230469 156.484375 C 242.765625 156.484375 243.1875 156.5625 243.492188 156.722656 C 243.796875 156.878906 244.132813 157.15625 244.492188 157.535156 L 246.710938 148.191406 C 248.515625 147.789063 249.726563 147.589844 250.359375 147.589844 C 250.5625 147.589844 250.664063 147.671875 250.664063 147.835938 C 250.664063 147.949219 250.410156 149.023438 249.898438 151.054688 C 247.84375 159.1875 246.816406 164.101563 246.816406 165.800781 C 246.816406 166.203125 246.902344 166.519531 247.066406 166.765625 C 247.230469 167.003906 247.445313 167.125 247.710938 167.125 C 248.371094 167.125 249.457031 166.257813 250.972656 164.519531 Z M 239.769531 167.125 C 240.78125 167.125 241.722656 166.261719 242.601563 164.53125 C 243.480469 162.804688 243.921875 161.183594 243.921875 159.675781 C 243.921875 159.0625 243.78125 158.570313 243.507813 158.203125 C 243.230469 157.839844 242.878906 157.65625 242.433594 157.65625 C 241.472656 157.65625 240.542969 158.5625 239.640625 160.367188 C 238.746094 162.175781 238.296875 163.808594 238.296875 165.265625 C 238.296875 165.839844 238.429688 166.292969 238.695313 166.628906 C 238.953125 166.960938 239.3125 167.125 239.769531 167.125 Z M 262.566406 166.296875 C 261.253906 167.589844 260.078125 168.542969 259.03125 169.15625 C 257.988281 169.773438 256.832031 170.078125 255.574219 170.078125 C 254.171875 170.078125 253.035156 169.628906 252.175781 168.730469 C 251.3125 167.824219 250.878906 166.636719 250.878906 165.171875 C 250.878906 162.972656 251.640625 160.988281 253.160156 159.210938 C 254.679688 157.4375 256.363281 156.546875 258.214844 156.546875 C 259.171875 156.546875 259.945313 156.796875 260.523438 157.292969 C 261.101563 157.785156 261.390625 158.4375 261.390625 159.246094 C 261.390625 161.386719 259.125 163.121094 254.589844 164.457031 C 255 166.488281 256.082031 167.507813 257.824219 167.507813 C 258.5 167.507813 259.152344 167.320313 259.769531 166.957031 C 260.386719 166.589844 261.324219 165.78125 262.566406 164.519531 Z M 254.46875 163.40625 C 257.09375 162.667969 258.40625 161.296875 258.40625 159.300781 C 258.40625 158.308594 258.046875 157.816406 257.332031 157.816406 C 256.652344 157.816406 256.007813 158.335938 255.386719 159.367188 C 254.773438 160.40625 254.46875 161.75 254.46875 163.40625 Z M 267.34375 157.179688 C 268.058594 156.996094 268.777344 156.84375 269.503906 156.726563 C 270.222656 156.605469 270.65625 156.546875 270.804688 156.546875 C 270.90625 156.546875 270.960938 156.589844 270.960938 156.667969 C 270.960938 156.828125 270.917969 156.984375 270.832031 157.148438 C 270.664063 157.625 270.578125 158.082031 270.578125 158.511719 C 270.589844 159.050781 270.902344 159.78125 271.519531 160.714844 C 272.140625 161.644531 272.453125 162.507813 272.453125 163.308594 C 272.453125 164.886719 271.695313 166.410156 270.175781 167.875 C 268.660156 169.34375 267.089844 170.078125 265.464844 170.078125 C 264.757813 170.078125 264.117188 169.894531 263.535156 169.523438 C 262.960938 169.152344 262.667969 168.753906 262.667969 168.332031 C 262.667969 168.082031 262.953125 167.613281 263.53125 166.921875 C 264.101563 166.230469 264.515625 165.886719 264.765625 165.886719 C 265.09375 165.886719 265.390625 166.308594 265.648438 167.15625 C 265.90625 168.003906 266.351563 168.425781 266.984375 168.425781 C 267.617188 168.425781 268.210938 168.136719 268.761719 167.546875 C 269.316406 166.960938 269.59375 166.332031 269.59375 165.652344 C 269.605469 165.003906 269.253906 164.132813 268.550781 163.054688 C 267.839844 161.96875 267.375 161.0625 267.148438 160.328125 C 265.945313 162.257813 264.425781 164.238281 262.582031 166.265625 L 262.222656 166.265625 L 262.222656 164.871094 C 264.757813 162.175781 266.464844 159.613281 267.34375 157.179688 Z M 282.769531 150.480469 C 282.769531 152.957031 281.855469 154.195313 280.027344 154.195313 C 279.140625 154.195313 278.382813 153.925781 277.753906 153.390625 C 278.351563 152.480469 278.816406 151.457031 279.148438 150.320313 C 279.964844 150.828125 280.621094 151.082031 281.113281 151.082031 C 281.671875 151.082031 282.226563 150.882813 282.769531 150.480469 Z M 283.089844 166.296875 C 280.667969 168.820313 278.863281 170.078125 277.660156 170.078125 C 277 170.078125 276.445313 169.738281 275.988281 169.0625 C 275.535156 168.386719 275.304688 167.539063 275.304688 166.515625 C 275.304688 164.3125 276.046875 161.265625 277.53125 157.367188 L 281.472656 156.546875 L 281.660156 156.546875 L 280.109375 161.394531 C 279.46875 163.402344 279.148438 164.832031 279.148438 165.691406 C 279.148438 166.035156 279.222656 166.308594 279.371094 166.519531 C 279.527344 166.734375 279.710938 166.839844 279.9375 166.839844 C 280.347656 166.839844 280.746094 166.695313 281.15625 166.40625 C 281.5625 166.113281 282.210938 165.484375 283.089844 164.519531 Z M 298.3125 166.265625 C 296.996094 167.644531 295.429688 168.660156 293.605469 169.3125 C 292.746094 171.988281 291.65625 174.050781 290.335938 175.5 C 289.019531 176.945313 287.621094 177.671875 286.144531 177.671875 C 285.335938 177.671875 284.683594 177.417969 284.191406 176.910156 C 283.691406 176.40625 283.441406 175.738281 283.441406 174.914063 C 283.441406 173.804688 283.9375 172.8125 284.925781 171.933594 C 285.910156 171.054688 287.589844 170.207031 289.957031 169.390625 L 290.621094 166.332031 C 289.632813 167.449219 288.773438 168.261719 288.050781 168.789063 C 287.324219 169.3125 286.597656 169.570313 285.863281 169.570313 C 285.003906 169.570313 284.304688 169.167969 283.757813 168.359375 C 283.210938 167.546875 282.933594 166.5 282.933594 165.203125 C 282.933594 163.089844 283.738281 161.105469 285.351563 159.257813 C 286.960938 157.410156 288.667969 156.484375 290.484375 156.484375 C 291.484375 156.484375 292.375 156.90625 293.152344 157.753906 C 293.621094 157.585938 294.230469 157.328125 294.96875 156.992188 L 296.078125 156.484375 L 296.429688 156.484375 C 296.023438 157.710938 295.710938 158.90625 295.492188 160.074219 L 294.027344 167.886719 C 295.421875 167.359375 296.84375 166.222656 298.3125 164.488281 Z M 288.328125 166.777344 C 289.0625 166.777344 289.714844 166.339844 290.285156 165.46875 C 290.851563 164.597656 291.296875 163.492188 291.609375 162.152344 C 291.925781 160.820313 292.078125 159.886719 292.078125 159.367188 C 292.078125 158.882813 291.964844 158.476563 291.71875 158.167969 C 291.476563 157.847656 291.171875 157.691406 290.808594 157.691406 C 289.714844 157.691406 288.757813 158.429688 287.9375 159.914063 C 287.121094 161.394531 286.714844 162.90625 286.714844 164.441406 C 286.714844 165.15625 286.863281 165.726563 287.15625 166.144531 C 287.453125 166.5625 287.84375 166.777344 288.328125 166.777344 Z M 289.632813 170.757813 C 286.292969 171.953125 284.617188 173.339844 284.617188 174.914063 C 284.617188 175.378906 284.757813 175.761719 285.035156 176.050781 C 285.316406 176.347656 285.671875 176.496094 286.105469 176.496094 C 286.851563 176.496094 287.5 176.023438 288.050781 175.082031 C 288.59375 174.140625 289.125 172.699219 289.632813 170.757813 Z M 313.527344 166.296875 C 311.140625 168.820313 309.089844 170.078125 307.386719 170.078125 C 306.695313 170.078125 306.136719 169.835938 305.710938 169.347656 C 305.289063 168.863281 305.078125 168.207031 305.078125 167.390625 C 305.078125 166.277344 305.53125 164.578125 306.441406 162.285156 C 306.929688 161.050781 307.171875 160.269531 307.171875 159.933594 C 307.171875 159.601563 307.039063 159.4375 306.78125 159.4375 C 306.640625 159.4375 306.449219 159.511719 306.210938 159.65625 C 305.992188 159.800781 305.738281 160.003906 305.449219 160.261719 C 305.1875 160.5 304.902344 160.792969 304.578125 161.132813 C 304.304688 161.421875 304.003906 161.757813 303.679688 162.125 L 302.8125 163.136719 C 302.429688 163.609375 302.191406 164.101563 302.097656 164.621094 C 301.941406 165.5 301.84375 166.308594 301.789063 167.046875 C 301.757813 167.59375 301.742188 168.335938 301.742188 169.269531 L 298.320313 170.078125 C 298.210938 168.679688 298.152344 167.644531 298.152344 166.960938 C 298.152344 165.296875 298.347656 163.71875 298.734375 162.234375 C 299.121094 160.746094 299.738281 159.070313 300.597656 157.214844 L 304.378906 156.484375 C 303.585938 158.601563 303.058594 160.277344 302.8125 161.507813 C 304.503906 159.617188 305.855469 158.304688 306.851563 157.578125 C 307.851563 156.847656 308.734375 156.484375 309.515625 156.484375 C 310.039063 156.484375 310.476563 156.683594 310.832031 157.082031 C 311.183594 157.476563 311.355469 157.976563 311.355469 158.574219 C 311.355469 159.5625 310.910156 161.207031 310.015625 163.496094 C 309.402344 165.070313 309.097656 166.09375 309.097656 166.5625 C 309.097656 167.195313 309.351563 167.507813 309.859375 167.507813 C 310.613281 167.507813 311.839844 166.511719 313.527344 164.519531 Z M 318.296875 157.179688 C 319.011719 156.996094 319.730469 156.84375 320.457031 156.726563 C 321.179688 156.605469 321.613281 156.546875 321.761719 156.546875 C 321.859375 156.546875 321.914063 156.589844 321.914063 156.667969 C 321.914063 156.828125 321.871094 156.984375 321.785156 157.148438 C 321.617188 157.625 321.53125 158.082031 321.53125 158.511719 C 321.542969 159.050781 321.855469 159.78125 322.476563 160.714844 C 323.09375 161.644531 323.40625 162.507813 323.40625 163.308594 C 323.40625 164.886719 322.648438 166.410156 321.128906 167.875 C 319.617188 169.34375 318.042969 170.078125 316.417969 170.078125 C 315.714844 170.078125 315.074219 169.894531 314.492188 169.523438 C 313.914063 169.152344 313.621094 168.753906 313.621094 168.332031 C 313.621094 168.082031 313.90625 167.613281 314.484375 166.921875 C 315.058594 166.230469 315.46875 165.886719 315.71875 165.886719 C 316.046875 165.886719 316.34375 166.308594 316.601563 167.15625 C 316.863281 168.003906 317.308594 168.425781 317.9375 168.425781 C 318.574219 168.425781 319.164063 168.136719 319.714844 167.546875 C 320.273438 166.960938 320.546875 166.332031 320.546875 165.652344 C 320.558594 165.003906 320.210938 164.132813 319.503906 163.054688 C 318.796875 161.96875 318.328125 161.0625 318.101563 160.328125 C 316.898438 162.257813 315.378906 164.238281 313.539063 166.265625 L 313.179688 166.265625 L 313.179688 164.871094 C 315.714844 162.175781 317.417969 159.613281 318.296875 157.179688 "/>
</g>
</svg>
